<svg xmlns="http://www.w3.org/2000/svg" width="1200" height="800" viewBox="-35.06778 -10.59875 303.92076 63.5925"><path fill-rule="evenodd" clip-rule="evenodd" d="M47.5172 18.653l3.13-7.811c1.063-2.647 1.322-5.963-.837-8.362C48.1942.668 45.7242 0 43.3122 0h-17.617c-7.093 0-14.424 5.414-16.795 11.333L.8012 31.554c-1.063 2.647-1.326 5.959.834 8.358 1.62 1.813 4.09 2.482 6.497 2.482h17.629c7.081 0 14.416-5.42 16.787-11.336l2.188-5.381-16.992-.02-2.536 6.384c-1.735 4.224-9.452 4.232-7.753 0l8.747-21.696c1.688-4.208 9.357-4.24 7.658 0l-3.339 8.307h16.996zm122.685-5.605c-6.169 0-12.572 4.72-14.642 9.865l-4.062 10.104c-.916 2.29-1.161 5.153.703 7.238 1.4 1.565 3.536 2.14 5.621 2.14h11.219c6.167 0 12.563-4.72 14.632-9.869l4.059-10.097c.925-2.289 1.165-5.164-.699-7.242-1.4-1.561-3.532-2.14-5.608-2.14h-11.223zm4.934 8.815l-4.711 11.722c-1.715 4.26-8.005 4.161-6.294 0l4.708-11.722c1.715-4.256 8.041-4.334 6.297 0m32.726-8.815l-1.939 4.838c.964-2.419 3.45-4.846 8.709-4.846h5.573c3.835 0 5.13 2.855 3.923 5.86l-4.123 10.31-13.066-.043 2.076-5.188c1.582-3.941-3.976-3.957-5.554 0l-7.414 18.416h-13.299l11.815-29.347zm-76.499 29.347l1.594-3.752c-.794 1.872-3.588 3.752-7.317 3.752h-5.262c-5.164 0-6.958-3.862-5.337-7.91l5.212-13.043c1.749-4.37 7.197-8.394 12.433-8.394 1.758 0 3.512-.008 5.267-.008 2.938 0 4.373 1.963 3.65 3.749l5.4-13.483h13.274l-15.639 39.089zm8.253-20.532c1.742-4.334-4.583-4.26-6.295 0l-4.711 11.722c-1.703 4.161 4.582 4.248 6.293 0zm-38.319-8.815h-13.374l-11.756 29.347h13.432l7.402-18.416c1.763-4.327 7.828-4.26 6.121 0l-7.422 18.416h13.05l8.523-21.263c1.57-3.989.043-8.083-5.35-8.083l-3.914-.008c-4.494 0-7.814 2.757-8.49 4.449zm-37.755 0h11.222c5.605 0 8.404 4.197 6.32 9.381l-4.059 10.097c-2.077 5.148-8.473 9.869-14.637 9.869h-11.222c-5.6 0-8.201-4.685-6.116-9.869l4.06-10.097c2.07-5.144 8.264-9.381 14.432-9.381m4.947 8.815c1.738-4.334-4.586-4.256-6.301 0l-4.712 11.722c-1.695 4.161 4.586 4.26 6.297 0z"/><path d="M233.0793 34.158c-.469-.833-1.117-1.478-1.942-1.923-.827-.453-1.68-.673-2.577-.673-.9 0-1.754.22-2.576.673-.814.445-1.472 1.089-1.943 1.923-.468.842-.703 1.707-.703 2.624 0 .909.231 1.782.691 2.608.464.818 1.105 1.471 1.928 1.923.826.46 1.695.696 2.604.696s1.774-.236 2.597-.696c.825-.453 1.474-1.105 1.931-1.923.469-.826.696-1.699.696-2.608-.002-.917-.234-1.782-.706-2.624m-2.423 6.279c-.657.374-1.356.558-2.089.558-.728 0-1.424-.184-2.089-.558-.668-.378-1.171-.897-1.558-1.55-.365-.669-.546-1.369-.546-2.104 0-.736.188-1.443.569-2.104.379-.676.898-1.196 1.563-1.558.653-.358 1.341-.539 2.061-.539.717 0 1.408.181 2.073.539.657.362 1.184.881 1.557 1.558 1.126 1.997.491 4.609-1.541 5.758"/><path d="M230.3733 38.462c-.228-.394-.37-.622-.405-.669-.161-.212-.291-.362-.378-.425-.09-.079-.224-.141-.389-.213.476-.071.841-.244 1.101-.53.26-.283.386-.63.386-1.027 0-.287-.059-.551-.209-.794-.129-.236-.302-.417-.507-.527-.204-.118-.503-.197-.869-.228-.13-.008-.721-.008-1.773-.008h-1.134v5.538h1.134v-2.273h.295c.311 0 .57.079.77.236.209.15.465.535.78 1.141l.464.896h1.393zm-1.381-2.101c-.153.04-.558.071-1.211.071h-.452v-1.511h.452c.646 0 1.041.024 1.211.071.17.055.288.142.374.268.095.118.134.252.134.41 0 .153-.039.298-.138.424-.09.133-.212.212-.37.267"/></svg>